<?xml version="1.0" encoding="UTF-8" standalone="no"?>
<!-- Created with Inkscape (http://www.inkscape.org/) -->

<svg
   xmlns:dc="http://purl.org/dc/elements/1.1/"
   xmlns:cc="http://creativecommons.org/ns#"
   xmlns:rdf="http://www.w3.org/1999/02/22-rdf-syntax-ns#"
   xmlns:svg="http://www.w3.org/2000/svg"
   xmlns="http://www.w3.org/2000/svg"
   xmlns:sodipodi="http://sodipodi.sourceforge.net/DTD/sodipodi-0.dtd"
   xmlns:inkscape="http://www.inkscape.org/namespaces/inkscape"
   id="svg4155"
   version="1.1"
   inkscape:version="0.91 r13725"
   xml:space="preserve"
   width="693.15686"
   height="173.811"
   viewBox="0 0 693.15686 173.811"
   sodipodi:docname="counter.svg"><metadata
     id="metadata4161"><rdf:RDF><cc:Work
         rdf:about=""><dc:format>image/svg+xml</dc:format><dc:type
           rdf:resource="http://purl.org/dc/dcmitype/StillImage" /><dc:title></dc:title></cc:Work></rdf:RDF></metadata><defs
     id="defs4159" /><sodipodi:namedview
     pagecolor="#ffffff"
     bordercolor="#666666"
     borderopacity="1"
     objecttolerance="10"
     gridtolerance="10"
     guidetolerance="10"
     inkscape:pageopacity="0"
     inkscape:pageshadow="2"
     inkscape:window-width="1030"
     inkscape:window-height="729"
     id="namedview4157"
     showgrid="false"
     inkscape:zoom="1.1974202"
     inkscape:cx="475.68307"
     inkscape:cy="-14.411006"
     inkscape:window-x="0"
     inkscape:window-y="0"
     inkscape:window-maximized="0"
     inkscape:current-layer="g4165" /><g
     id="g4163"
     inkscape:groupmode="layer"
     inkscape:label="counter"
     transform="matrix(1.25,0,0,-1.25,0,173.811)"><g
       id="g4165"><g
         id="g4167"
         transform="matrix(1,0,0,-1,0,139.0488)"><path
           d="m 455.66,46.395 0.957,0.058 11.75,0.336 L 447.105,9.965 21.91,9.965 0.004,9.727"
           style="fill:none;stroke:#ff0000;stroke-width:0.80000001;stroke-linecap:butt;stroke-linejoin:miter;stroke-miterlimit:4;stroke-dasharray:none;stroke-opacity:1"
           id="path4169"
           inkscape:connector-curvature="0" /></g><g
         id="g4171"
         transform="matrix(1,-0.0600167,-0.0600167,-1,0,139.0488)"><path
           d="m 460.974,20.912 -5.233,-1.924 5.232,-1.928 c -0.834,1.14 -0.83,2.695 10e-4,3.852 z"
           style="fill:#ff0000;fill-opacity:1;fill-rule:evenodd;stroke:#ff0000;stroke-width:0.29946101;stroke-linecap:butt;stroke-linejoin:round;stroke-miterlimit:4;stroke-dasharray:none;stroke-opacity:1"
           id="path4173"
           inkscape:connector-curvature="0" /></g><g
         id="g4175"
         transform="matrix(1,0,0,-1,0,139.0488)"><path
           d="m 454.191,46.789 -14.171,-24.551 -14.176,0 14.176,24.551 -14.176,0 -14.172,-24.551 -14.172,0 14.172,24.551"
           style="fill:none;stroke:#0000ff;stroke-width:0.80000001;stroke-linecap:butt;stroke-linejoin:miter;stroke-miterlimit:4;stroke-dasharray:none;stroke-opacity:1"
           id="path4177"
           inkscape:connector-curvature="0" /></g><g
         id="g4179"
         transform="matrix(1,0,0,-1,0,139.0488)"><path
           d="m 397.5,46.789 -14.176,-24.551 -14.172,0 14.172,24.551 -14.172,0 -14.172,-24.551 -14.175,0 14.175,24.551 -14.175,0 -14.172,-24.551 -14.172,0 14.172,24.551 -14.172,0 -14.176,-24.551 -14.172,0 14.172,24.551"
           style="fill:none;stroke:#000000;stroke-width:0.80000001;stroke-linecap:butt;stroke-linejoin:miter;stroke-miterlimit:4;stroke-dasharray:none;stroke-opacity:1"
           id="path4181"
           inkscape:connector-curvature="0" /></g><g
         id="g4183"
         transform="matrix(1,0,0,-1,0,139.0488)"><path
           d="m 284.113,46.789 -14.172,-24.551 -28.347,0 7.086,12.274 14.175,0 7.086,12.277 -28.347,0 -14.172,-24.551"
           style="fill:none;stroke:#0000ff;stroke-width:0.80000001;stroke-linecap:butt;stroke-linejoin:miter;stroke-miterlimit:4;stroke-dasharray:none;stroke-opacity:1"
           id="path4185"
           inkscape:connector-curvature="0" /></g><g
         id="g4187"
         transform="matrix(1,0,0,-1,0,139.0488)"><path
           d="m 411.672,46.789 -14.172,0"
           style="fill:none;stroke:#0000ff;stroke-width:0.80000001;stroke-linecap:butt;stroke-linejoin:miter;stroke-miterlimit:4;stroke-dasharray:none;stroke-opacity:1"
           id="path4189"
           inkscape:connector-curvature="0" /></g><g
         id="g4191"
         transform="matrix(1,0,0,-1,0,139.0488)"><path
           d="m 400.699,46.789 1.602,-1.601 -5.602,1.601 5.602,1.598 -1.602,-1.598 z"
           style="fill:#0000ff;fill-opacity:1;fill-rule:evenodd;stroke:#0000ff;stroke-width:0.40000001;stroke-linecap:butt;stroke-linejoin:miter;stroke-miterlimit:4;stroke-dasharray:none;stroke-opacity:1"
           id="path4193"
           inkscape:connector-curvature="0" /></g><g
         id="g4195"
         transform="matrix(1,0,0,-1,0,139.0488)"><path
           d="m 298.285,46.789 -14.172,0"
           style="fill:none;stroke:#000000;stroke-width:0.80000001;stroke-linecap:butt;stroke-linejoin:miter;stroke-miterlimit:4;stroke-dasharray:none;stroke-opacity:1"
           id="path4197"
           inkscape:connector-curvature="0" /></g><g
         id="g4199"
         transform="matrix(1,5.64444e-7,5.64444e-7,-1,0,139.0488)"><path
           d="m 287.312,46.789 1.602,-1.601 -5.602,1.601 5.602,1.598 -1.602,-1.598 z"
           style="fill:#000000;fill-opacity:1;fill-rule:evenodd;stroke:#000000;stroke-width:0.40000001;stroke-linecap:butt;stroke-linejoin:miter;stroke-miterlimit:4;stroke-dasharray:none;stroke-opacity:1"
           id="path4201"
           inkscape:connector-curvature="0" /></g><g
         id="g4203"
         transform="matrix(1,0,0,-1,0,139.0488)"><path
           d="m 227.422,22.238 -14.176,0"
           style="fill:none;stroke:#0000ff;stroke-width:0.80000001;stroke-linecap:butt;stroke-linejoin:miter;stroke-miterlimit:4;stroke-dasharray:none;stroke-opacity:1"
           id="path4205"
           inkscape:connector-curvature="0" /></g><g
         id="g4207"
         transform="matrix(1,0,0,-1,0,139.0488)"><path
           d="m 216.445,22.238 1.602,-1.597 -5.602,1.597 5.602,1.602 -1.602,-1.602 z"
           style="fill:#0000ff;fill-opacity:1;fill-rule:evenodd;stroke:#0000ff;stroke-width:0.40000001;stroke-linecap:butt;stroke-linejoin:miter;stroke-miterlimit:4;stroke-dasharray:none;stroke-opacity:1"
           id="path4209"
           inkscape:connector-curvature="0" /></g><g
         id="g4211"
         transform="matrix(1,0,0,-1,0,139.0488)"><path
           d="m 213.246,22.238 14.176,24.551 -14.176,0 -14.172,-24.551 -14.172,0 14.172,24.551 -14.172,0 -14.175,-24.551 -14.172,0 14.172,24.551 -14.172,0 -14.172,-24.551 -14.176,0 14.176,24.551 -14.176,0 -14.172,-24.551 -14.172,0"
           style="fill:none;stroke:#000000;stroke-width:0.80000001;stroke-linecap:butt;stroke-linejoin:miter;stroke-miterlimit:4;stroke-dasharray:none;stroke-opacity:1"
           id="path4213"
           inkscape:connector-curvature="0" /></g><g
         id="g4215"
         transform="matrix(1,-5.64445e-7,-5.64445e-7,-1,0,139.0488)"><path
           d="m 103.063,22.238 1.597,-1.597 -5.597,1.597 5.597,1.602 -1.597,-1.602 z"
           style="fill:#000000;fill-opacity:1;fill-rule:evenodd;stroke:#000000;stroke-width:0.40000001;stroke-linecap:butt;stroke-linejoin:miter;stroke-miterlimit:4;stroke-dasharray:none;stroke-opacity:1"
           id="path4217"
           inkscape:connector-curvature="0" /></g><g
         id="g4219"
         transform="matrix(1,0,0,-1,0,139.0488)"><path
           d="m 99.863,22.238 14.172,24.551 -14.172,0 -14.175,-24.551 -14.172,0 14.172,24.551 -14.172,0 -14.176,-24.551 -14.172,0"
           style="fill:none;stroke:#0000ff;stroke-width:0.80000001;stroke-linecap:butt;stroke-linejoin:miter;stroke-miterlimit:4;stroke-dasharray:none;stroke-opacity:1"
           id="path4221"
           inkscape:connector-curvature="0" /></g><g
         id="g4223"
         transform="matrix(1,0,0,-1,0,139.0488)"><path
           d="m 46.367,22.238 1.602,-1.597 -5.602,1.597 5.602,1.602 -1.602,-1.602 z"
           style="fill:#0000ff;fill-opacity:1;fill-rule:evenodd;stroke:#0000ff;stroke-width:0.40000001;stroke-linecap:butt;stroke-linejoin:miter;stroke-miterlimit:4;stroke-dasharray:none;stroke-opacity:1"
           id="path4225"
           inkscape:connector-curvature="0" /></g><g
         id="g4227"
         transform="matrix(1,0,0,-1,0,139.0488)"><path
           d="m 42.332,22.32 -28.348,0 7.086,12.274 28.348,0 7.086,12.273 -28.348,0 7.09,12.274 14.172,0 7.086,12.277 -14.172,0 7.086,12.273 28.348,0 -14.176,-24.55 14.176,0"
           style="fill:none;stroke:#000000;stroke-width:0.80000001;stroke-linecap:butt;stroke-linejoin:miter;stroke-miterlimit:4;stroke-dasharray:none;stroke-opacity:1"
           id="path4229"
           inkscape:connector-curvature="0" /></g><g
         id="g4231"
         transform="matrix(-1,0,0,1,0,139.0488)"><path
           d="m -74.562,-59.141 1.597,-1.601 -5.597,1.601 5.597,1.598 -1.597,-1.598 z"
           style="fill:#000000;fill-opacity:1;fill-rule:evenodd;stroke:#000000;stroke-width:0.40000001;stroke-linecap:butt;stroke-linejoin:miter;stroke-miterlimit:4;stroke-dasharray:none;stroke-opacity:1"
           id="path4233"
           inkscape:connector-curvature="0" /></g><g
         id="g4235"
         transform="matrix(1,0,0,-1,0,139.0488)"><path
           d="m 78.602,59.062 28.347,0 7.086,12.274 -28.347,0 7.085,12.273 42.52,0 -14.172,-24.547 14.172,0"
           style="fill:none;stroke:#0000ff;stroke-width:0.80000001;stroke-linecap:butt;stroke-linejoin:miter;stroke-miterlimit:4;stroke-dasharray:none;stroke-opacity:1"
           id="path4237"
           inkscape:connector-curvature="0" /></g><g
         id="g4239"
         transform="matrix(-1,-5.64444e-7,-5.64444e-7,1,0,139.0488)"><path
           d="m -132.094,-59.063 1.598,-1.601 -5.598,1.601 5.598,1.602 -1.598,-1.602 z"
           style="fill:#0000ff;fill-opacity:1;fill-rule:evenodd;stroke:#0000ff;stroke-width:0.40000001;stroke-linecap:butt;stroke-linejoin:miter;stroke-miterlimit:4;stroke-dasharray:none;stroke-opacity:1"
           id="path4241"
           inkscape:connector-curvature="0" /></g><g
         id="g4243"
         transform="matrix(1,0,0,-1,0,139.0488)"><path
           d="m 135.293,59.062 14.176,24.547 14.172,0 -14.172,-24.547 14.172,0 14.171,24.547 14.176,0 -14.176,-24.547 14.176,0 14.172,24.547 14.172,0 -14.172,-24.547 14.172,0 14.176,24.547 14.172,0 -14.172,-24.547 14.172,0"
           style="fill:none;stroke:#000000;stroke-width:0.80000001;stroke-linecap:butt;stroke-linejoin:miter;stroke-miterlimit:4;stroke-dasharray:none;stroke-opacity:1"
           id="path4245"
           inkscape:connector-curvature="0" /></g><g
         id="g4247"
         transform="matrix(-1,0,0,1,0,139.0488)"><path
           d="m -245.48,-59.063 1.601,-1.601 -5.601,1.601 5.601,1.602 -1.601,-1.602 z"
           style="fill:#000000;fill-opacity:1;fill-rule:evenodd;stroke:#000000;stroke-width:0.40000001;stroke-linecap:butt;stroke-linejoin:miter;stroke-miterlimit:4;stroke-dasharray:none;stroke-opacity:1"
           id="path4249"
           inkscape:connector-curvature="0" /></g><g
         id="g4251"
         transform="matrix(1,0,0,-1,0,139.0488)"><path
           d="m 248.68,59.062 14.175,24.547 14.172,0 -14.172,-24.547 14.172,0 14.172,24.547 14.176,0 -14.176,-24.547"
           style="fill:none;stroke:#0000ff;stroke-width:0.80000001;stroke-linecap:butt;stroke-linejoin:miter;stroke-miterlimit:4;stroke-dasharray:none;stroke-opacity:1"
           id="path4253"
           inkscape:connector-curvature="0" /></g><g
         id="g4255"
         transform="matrix(1,0,0,-1,0,139.0488)"><path
           d="m 291.199,59.062 14.176,0"
           style="fill:none;stroke:#0000ff;stroke-width:0.80000001;stroke-linecap:butt;stroke-linejoin:miter;stroke-miterlimit:4;stroke-dasharray:none;stroke-opacity:1"
           id="path4257"
           inkscape:connector-curvature="0" /></g><g
         id="g4259"
         transform="matrix(-1,5.64445e-7,5.64445e-7,1,0,139.0488)"><path
           d="m -302.172,-59.062 1.598,-1.602 -5.598,1.602 5.598,1.601 -1.598,-1.601 z"
           style="fill:#0000ff;fill-opacity:1;fill-rule:evenodd;stroke:#0000ff;stroke-width:0.40000001;stroke-linecap:butt;stroke-linejoin:miter;stroke-miterlimit:4;stroke-dasharray:none;stroke-opacity:1"
           id="path4261"
           inkscape:connector-curvature="0" /></g><g
         id="g4263"
         transform="matrix(1,0,0,-1,0,139.0488)"><path
           d="m 305.375,59.062 14.172,24.547 14.172,0 -14.172,-24.547 14.172,0 14.176,24.547 14.171,0 -14.171,-24.547 14.171,0 14.172,24.547 14.176,0 -14.176,-24.547 14.176,0 14.172,24.547 14.172,0 -14.172,-24.547 14.172,0"
           style="fill:none;stroke:#000000;stroke-width:0.80000001;stroke-linecap:butt;stroke-linejoin:miter;stroke-miterlimit:4;stroke-dasharray:none;stroke-opacity:1"
           id="path4265"
           inkscape:connector-curvature="0" /></g><g
         id="g4267"
         transform="matrix(-1,5.64445e-7,5.64445e-7,1,0,139.0488)"><path
           d="m -415.559,-59.062 1.598,-1.602 -5.598,1.602 5.598,1.601 -1.598,-1.601 z"
           style="fill:#000000;fill-opacity:1;fill-rule:evenodd;stroke:#000000;stroke-width:0.40000001;stroke-linecap:butt;stroke-linejoin:miter;stroke-miterlimit:4;stroke-dasharray:none;stroke-opacity:1"
           id="path4269"
           inkscape:connector-curvature="0" /></g><path
         inkscape:connector-curvature="0"
         id="path4273"
         style="fill:none;stroke:#e600d8;stroke-width:0.80000001;stroke-linecap:butt;stroke-linejoin:miter;stroke-miterlimit:4;stroke-dasharray:none;stroke-opacity:1;fill-opacity:1"
         d="m 418.758,79.9868 28.347,0 7.086,-12.274 -28.347,0 7.09,-12.273 42.519,0 -14.176,24.547 14.176,0" /><g
         id="g4275"
         transform="matrix(-1,0,0,1,0,139.0488)"><path
           d="m -472.254,-59.063 1.602,-1.601 -5.602,1.601 5.602,1.602 -1.602,-1.602 z"
           style="fill:#0000ff;fill-opacity:1;fill-rule:evenodd;stroke:#0000ff;stroke-width:0.40000001;stroke-linecap:butt;stroke-linejoin:miter;stroke-miterlimit:4;stroke-dasharray:none;stroke-opacity:1"
           id="path4277"
           inkscape:connector-curvature="0" /></g><text
         transform="matrix(1,0,0,-1,187.76885,0.053717)"
         style="font-variant:normal;font-weight:normal;font-size:11px;font-family:TakaoPGothic;-inkscape-font-specification:TakaoPGothic;writing-mode:lr-tb;fill:#000000;fill-opacity:1;fill-rule:nonzero;stroke:none"
         id="text4279"><tspan
           x="0 6.4239998 12.672 18.92"
           y="0"
           sodipodi:role="line"
           id="tspan4281">Seed</tspan></text>
<text
         transform="matrix(1,0,0,-1,69.60436,130.92233)"
         style="font-variant:normal;font-weight:normal;font-size:11px;font-family:TakaoPGothic;-inkscape-font-specification:TakaoPGothic;writing-mode:lr-tb;fill:#ff0000;fill-opacity:1;fill-rule:nonzero;stroke:none"
         id="text4283"><tspan
           x="0 175.99998 343.99997"
           y="0"
           sodipodi:role="line"
           id="tspan4285">001</tspan></text>
<text
         transform="matrix(1,0,0,-1,90.404363,83.722333)"
         style="font-variant:normal;font-weight:normal;font-size:11px;font-family:TakaoPGothic;-inkscape-font-specification:TakaoPGothic;writing-mode:lr-tb;fill:#0000ff;fill-opacity:1;fill-rule:nonzero;stroke:none"
         id="text4287"><tspan
           x="0"
           y="0"
           id="tspan4289">0</tspan><tspan
           x="170.79999"
           y="1.200001"
           id="tspan4291">1</tspan><tspan
           x="339.19998"
           y="1.6000006"
           id="tspan4293">0</tspan><tspan
           x="361.19998 190.39999"
           y="39.200012"
           sodipodi:role="line"
           id="tspan4295">01</tspan><tspan
           x="20.399996"
           y="40.800018"
           id="tspan4297">0</tspan></text>
<g
         id="g4299"
         transform="matrix(1,0,0,-1,0,139.0488)"><path
           d="m 151.203,116.125 32,0"
           style="fill:none;stroke:#0000ff;stroke-width:0.80000001;stroke-linecap:butt;stroke-linejoin:miter;stroke-miterlimit:4;stroke-dasharray:none;stroke-opacity:1"
           id="path4301"
           inkscape:connector-curvature="0" /></g><g
         id="g4303"
         transform="matrix(-1,-2.5e-7,-2.5e-7,1,0,139.0488)"><path
           d="m -180.004,-116.125 1.598,-1.602 -5.598,1.602 5.598,1.598 -1.598,-1.598 z"
           style="fill:#0000ff;fill-opacity:1;fill-rule:evenodd;stroke:#0000ff;stroke-width:0.40000001;stroke-linecap:butt;stroke-linejoin:miter;stroke-miterlimit:4;stroke-dasharray:none;stroke-opacity:1"
           id="path4305"
           inkscape:connector-curvature="0" /></g><text
         transform="matrix(1,0,0,-1,188.00436,18.922345)"
         style="font-variant:normal;font-weight:normal;font-size:11px;font-family:TakaoPGothic;-inkscape-font-specification:TakaoPGothic;writing-mode:lr-tb;fill:#000000;fill-opacity:1;fill-rule:nonzero;stroke:none"
         id="text4307"><tspan
           x="0 8.25 14.289 17.259001 20.625 23.594999 29.634001 36.498001 43.395 49.643002"
           y="0"
           sodipodi:role="line"
           id="tspan4309">Half adder</tspan></text>
<g
         id="g4311"
         transform="matrix(1,0,0,-1,0,139.0488)"><path
           d="m 475.879,58.75 14.176,24.547 14.172,0 -14.172,-24.547 28.343,0 7.086,12.273 -14.172,0 7.086,12.274 14.176,0 7.086,12.273 -28.348,0 7.086,12.278 28.348,0 7.086,12.273 -42.52,0 -14.171,-24.551 -14.176,0"
           style="fill:none;stroke:#000000;stroke-width:0.80000001;stroke-linecap:butt;stroke-linejoin:miter;stroke-miterlimit:4;stroke-dasharray:none;stroke-opacity:1"
           id="path4313"
           inkscape:connector-curvature="0" /></g><g
         id="g4315"
         transform="matrix(1,0,0,-1,0,139.0488)"><path
           d="m 486.168,95.57 1.598,-1.597 -5.598,1.597 5.598,1.602 -1.598,-1.602 z"
           style="fill:#000000;fill-opacity:1;fill-rule:evenodd;stroke:#000000;stroke-width:0.40000001;stroke-linecap:butt;stroke-linejoin:miter;stroke-miterlimit:4;stroke-dasharray:none;stroke-opacity:1"
           id="path4317"
           inkscape:connector-curvature="0" /></g><g
         id="g4319"
         transform="matrix(1,0,0,-1,0,139.0488)"><path
           d="m 150.359,135.426 32,0"
           style="fill:none;stroke:#ff0000;stroke-width:0.80000001;stroke-linecap:butt;stroke-linejoin:miter;stroke-miterlimit:4;stroke-dasharray:none;stroke-opacity:1"
           id="path4321"
           inkscape:connector-curvature="0" /></g><g
         id="g4323"
         transform="matrix(-1,0,0,1,0,139.0488)"><path
           d="m -179.16,-135.426 1.598,-1.601 -5.598,1.601 5.598,1.602 -1.598,-1.602 z"
           style="fill:#ff0000;fill-opacity:1;fill-rule:evenodd;stroke:#ff0000;stroke-width:0.40000001;stroke-linecap:butt;stroke-linejoin:miter;stroke-miterlimit:4;stroke-dasharray:none;stroke-opacity:1"
           id="path4325"
           inkscape:connector-curvature="0" /></g></g></g></svg>